# xmcd
#
# Track frame offsets: 
#        182
#        19367
#        34895
#        48822
#        65470
#        79277
#        97720
#        138337
#        150470
#        163175
#        177757
#        193895
#        213037
#        235187
#        271900
#        301885
#        326707
#
# Disc length: 4534 seconds
#
# Revision: 3
# Processed by: cddbd v1.5.2PL0 Copyright (c) Steve Scherf et al.
# Submitted via: ExactAudioCopy v0.99pb5
#
DISCID=de11b411
DTITLE=Terry Callier - Essential, the very best of
DYEAR=1998
DGENRE=R&B - Smooth Jazz
TTITLE0=Ordinary Joe
TTITLE1=Gotta Get Closer To You
TTITLE2=Lover (Where Have You Gone)
TTITLE3=Just As Long As We're In Love
TTITLE4=Baby Take Your Time
TTITLE5=Occasional Rain
TTITLE6=Dancing Girl
TTITLE7=Look At Me Now
TTITLE8=You Were Just Fooling Me
TTITLE9=I Just Can't Help Myself
TTITLE10=Sail Away
TTITLE11=Color Me Free
TTITLE12=Soulful Clown
TTITLE13=City Side And Country Side
TTITLE14=I'd Rather Be With You
TTITLE15=You Don't Care
TTITLE16=Blues
EXTD=
EXTT0=
EXTT1=
EXTT2=
EXTT3=
EXTT4=
EXTT5=
EXTT6=
EXTT7=
EXTT8=
EXTT9=
EXTT10=
EXTT11=
EXTT12=
EXTT13=
EXTT14=
EXTT15=
EXTT16=
PLAYORDER=
